<?xml version="1.0" encoding="utf-8"?>
<!-- Svg Vector Icons : http://www.onlinewebfonts.com/icon -->
<!DOCTYPE svg PUBLIC "-//W3C//DTD SVG 1.1//EN" "http://www.w3.org/Graphics/SVG/1.1/DTD/svg11.dtd">
<svg version="1.1" fill="#606060" xmlns="http://www.w3.org/2000/svg" xmlns:xlink="http://www.w3.org/1999/xlink" x="0px" y="0px" viewBox="0 0 1000 1000" enable-background="new 0 0 1000 1000" xml:space="preserve">
<metadata> Svg Vector Icons : http://www.onlinewebfonts.com/icon </metadata>
<g><g transform="translate(0.000000,511.000000) scale(0.100000,-0.100000)"><path d="M369.3,2975.8c-114.1-54.8-219.1-189.4-255.6-324.1c-54.8-200.9,59.4-438.3,260.2-545.5l95.9-50.2h4530.9h4530.9l95.9,50.2c189.5,102.7,299,310.4,267.1,511.3c-22.8,132.4-137,292.2-257.9,356.1l-100.4,52.5H5003H469.8L369.3,2975.8z"/><path d="M1574.5,531.1c-54.8-29.7-130.1-98.2-168.9-150.6c-61.6-89-68.5-114.1-68.5-273.9c0-155.2,6.8-187.2,61.6-267c34.2-47.9,100.4-114.1,148.4-146.1l84.4-57.1l3341.7-6.8L8315-375l111.8,59.3c59.4,34.2,139.3,102.7,173.5,152.9c57.1,82.2,63.9,111.9,63.9,269.4c0,159.8-6.8,184.9-68.5,273.9c-36.5,52.5-114.1,121-168.9,150.6l-100.4,52.5H5000.7H1675L1574.5,531.1z"/><path d="M2540.1-1858.7c-134.7-32-246.5-125.5-312.7-262.5c-54.8-107.3-61.6-146.1-50.2-253.3c16-155.2,93.6-280.8,226-367.5l95.9-63.9h2501.7h2501.7l95.9,63.9c137,89,212.3,214.6,226,374.4c16,182.6-70.8,351.5-232.8,451.9l-109.6,68.5l-2433.2,4.6C3711-1842.7,2581.2-1847.3,2540.1-1858.7z"/></g></g>
</svg>