<?xml version="1.0" encoding="utf-8"?>
<!-- Svg Vector Icons : http://www.onlinewebfonts.com/icon -->
<!DOCTYPE svg PUBLIC "-//W3C//DTD SVG 1.1//EN" "http://www.w3.org/Graphics/SVG/1.1/DTD/svg11.dtd">
<svg version="1.1" fill="#333333" xmlns="http://www.w3.org/2000/svg" xmlns:xlink="http://www.w3.org/1999/xlink" x="0px" y="0px" viewBox="0 0 1000 1000" enable-background="new 0 0 1000 1000" xml:space="preserve">
<metadata> Svg Vector Icons : http://www.onlinewebfonts.com/icon </metadata>
<g><path d="M990,905.7L676.4,592.2c43.8-61.8,69.7-134.9,69.7-214.7c-3.4-104.5-39.3-191.1-109-259.6C568.6,48.2,482,12.2,377.5,8.9c-104.5,3.4-191.1,39.3-260.7,109C48.2,186.4,12.2,273,10,377.5C13.4,482,49.3,568.6,117.9,638.2C186.4,706.8,273,742.8,377.5,745c79.8,0,151.7-24.7,213.5-68.6l313.6,314.7L990,905.7z M81.9,377.5c2.2-84.3,31.5-154,86.5-209c55.1-55.1,124.7-84.3,209-86.5c84.3,2.2,154,31.5,209,86.5c56.2,55.1,85.4,124.7,87.7,209c-2.2,84.3-31.5,154-87.7,209c-55.1,55.1-124.7,84.3-209,86.5c-84.3-2.2-154-31.5-209-86.5C113.4,531.5,84.2,461.8,81.9,377.5z"/></g>
</svg>